<?xml version="1.0" encoding="utf-8"?>
<!-- Generator: Adobe Illustrator 19.0.0, SVG Export Plug-In . SVG Version: 6.00 Build 0)  -->
<svg version="1.1" id="Ñëîé_1" xmlns="http://www.w3.org/2000/svg" xmlns:xlink="http://www.w3.org/1999/xlink" x="0px" y="0px"
	 viewBox="0 0 500 500" style="enable-background:new 0 0 500 500;" xml:space="preserve">
<style type="text/css">
	.st0{fill:url(#path3060_1_);}
	.st1{fill:#1870C5;}
	.st2{fill:#FFFFFF;}
</style>
<g id="XMLID_1_">
	
		<linearGradient id="path3060_1_" gradientUnits="userSpaceOnUse" x1="1.2838" y1="501.508" x2="1.6304" y2="501.508" gradientTransform="matrix(0 513.7016 -513.7016 0 257875.4375 -498.563)">
		<stop  offset="0" style="stop-color:#00B8F1"/>
		<stop  offset="0.2199" style="stop-color:#06A5E5"/>
		<stop  offset="0.2199" style="stop-color:#06A5E5"/>
		<stop  offset="0.7943" style="stop-color:#1870C5"/>
		<stop  offset="1" style="stop-color:#1D61BC"/>
	</linearGradient>
	<path id="path3060" class="st0" d="M70,160.9V339h181.9L430,160.9l0,0L70,160.9L70,160.9z"/>
	<path id="path5384" class="st1" d="M300.4,320.8v13.3h2v-5.8h2.3l3.6,5.8h2.3l-3.9-5.8c1.9-0.2,3.5-1.4,3.5-3.8
		c0-2.6-1.6-3.8-4.8-3.8H300.4z M302.4,322.6h2.8c1.4,0,2.9,0.2,2.9,1.9c0,2.1-1.5,2.3-3.3,2.3h-2.4V322.6z M304.9,315.9
		c-6.4,0-11.8,4.9-11.8,11.5c0,6.7,5.4,11.7,11.8,11.7c6.3,0,11.5-5,11.5-11.7C316.5,320.8,311.2,315.9,304.9,315.9z M304.9,317.8
		c5.2,0,9.3,4.2,9.3,9.6c0,5.6-4.1,9.6-9.3,9.6c-5.3,0-9.5-4.1-9.5-9.6C295.4,322,299.7,317.8,304.9,317.8z"/>
	<path id="path3100" class="st2" d="M285.7,246.1h-7.8v-28.5h7.8c10.4,0,18.7,3.4,18.7,14.1C304.4,242.7,296.1,246.1,285.7,246.1
		 M201.7,266.5c-4.1,0-8-0.8-11.4-2l11.2-35.4h0.2l11,35.5C209.5,265.8,205.8,266.5,201.7,266.5 M283.6,194.4h-35.4v84.3l-31-84.3
		h-30.7l-26.4,70.4c-2.8-17.8-21.2-23.9-35.6-28.5c-9.5-3.1-19.7-7.6-19.6-12.6c0.1-4.1,5.4-7.9,16-7.3c7.1,0.4,13.4,0.9,25.9,7
		l12.3-21.4c-11.4-5.8-27.2-9.5-40.1-9.5H119c-15.1,0-27.6,4.9-35.4,13c-5.4,5.6-8.3,12.8-8.5,20.7c-0.2,10.9,3.8,18.6,12.2,24.7
		c7.1,5.2,16.1,8.5,24.1,11c9.8,3,17.9,5.7,17.8,11.3c-0.1,2.1-0.8,4-2.3,5.5c-2.5,2.5-6.2,3.5-11.4,3.6c-10,0.2-17.5-1.4-29.3-8.4
		L75,295.7c11.8,6.7,25.8,10.7,40.1,10.7h1.8c12.4-0.2,22.5-3.8,30.5-10.2l1.3-1.1l-3.5,9.5h32.2l5.4-16.4c5.7,1.9,12.1,3,18.9,3
		c6.7,0,12.9-1,18.5-2.8l5.2,16.3h52.5v-34h11.5c27.7,0,44.1-14.1,44.1-37.7C333.4,206.5,317.5,194.4,283.6,194.4"/>
</g>
</svg>
